{
  "accessors": [
    {
      "bufferView": 2,
      "componentType": 5126,
      "count": 1707,
      "max": [
        29.0356502532959,
        -7.51067590713501,
        21.568923950195313
      ],
      "min": [
        -29.0356502532959,
        -55.352500915527344,
        -0.024109000340104103
      ],
      "type": "VEC3"
    },
    {
      "bufferView": 2,
      "byteOffset": 20484,
      "componentType": 5126,
      "count": 1707,
      "max": [
        1.0,
        1.0,
        1.0
      ],
      "min": [
        -0.9999995231628418,
        -1.0,
        -1.0
      ],
      "type": "VEC3"
    },
    {
      "bufferView": 1,
      "componentType": 5126,
      "count": 1707,
      "max": [
        4.809895992279053,
        1.4653929471969604
      ],
      "min": [
        -3.930525064468384,
        -0.9915300011634827
      ],
      "type": "VEC2"
    },
    {
      "bufferView": 0,
      "componentType": 5125,
      "count": 3324,
      "type": "SCALAR"
    },
    {
      "bufferView": 2,
      "byteOffset": 40968,
      "componentType": 5126,
      "count": 16941,
      "max": [
        25.0246639251709,
        12.133520126342773,
        160.1436004638672
      ],
      "min": [
        -25.0246639251709,
        -12.133520126342773,
        -0.08866900205612183
      ],
      "type": "VEC3"
    },
    {
      "bufferView": 2,
      "byteOffset": 244260,
      "componentType": 5126,
      "count": 16941,
      "max": [
        1.0,
        1.0,
        1.0
      ],
      "min": [
        -1.0,
        -1.0,
        -1.0
      ],
      "type": "VEC3"
    },
    {
      "bufferView": 1,
      "byteOffset": 13656,
      "componentType": 5126,
      "count": 16941,
      "max": [
        1.3765050172805786,
        2.21572208404541
      ],
      "min": [
        -1.2703620195388794,
        -1.1438390016555786
      ],
      "type": "VEC2"
    },
    {
      "bufferView": 0,
      "byteOffset": 13296,
      "componentType": 5125,
      "count": 27444,
      "type": "SCALAR"
    },
    {
      "bufferView": 2,
      "byteOffset": 447552,
      "componentType": 5126,
      "count": 3656,
      "max": [
        25.0246639251709,
        10.528034210205078,
        150.78787231445313
      ],
      "min": [
        -25.0246639251709,
        -54.66339874267578,
        -0.08866900205612183
      ],
      "type": "VEC3"
    },
    {
      "bufferView": 2,
      "byteOffset": 491424,
      "componentType": 5126,
      "count": 3656,
      "max": [
        1.0,
        1.0,
        0.0
      ],
      "min": [
        -1.0,
        -1.0,
        0.0
      ],
      "type": "VEC3"
    },
    {
      "bufferView": 1,
      "byteOffset": 149184,
      "componentType": 5126,
      "count": 3656,
      "max": [
        0.9136350154876709,
        2.1433749198913574
      ],
      "min": [
        7.000000186963007e-05,
        -1.0887960195541382
      ],
      "type": "VEC2"
    },
    {
      "bufferView": 0,
      "byteOffset": 123072,
      "componentType": 5125,
      "count": 5544,
      "type": "SCALAR"
    },
    {
      "bufferView": 2,
      "byteOffset": 535296,
      "componentType": 5126,
      "count": 3474,
      "max": [
        24.673595428466797,
        10.528034210205078,
        154.080322265625
      ],
      "min": [
        -24.673595428466797,
        -10.528034210205078,
        -0.08866900205612183
      ],
      "type": "VEC3"
    },
    {
      "bufferView": 2,
      "byteOffset": 576984,
      "componentType": 5126,
      "count": 3474,
      "max": [
        1.0,
        1.0,
        0.0
      ],
      "min": [
        -1.0,
        -1.0,
        0.0
      ],
      "type": "VEC3"
    },
    {
      "bufferView": 1,
      "byteOffset": 178432,
      "componentType": 5126,
      "count": 3474,
      "max": [
        0.8316180109977722,
        2.1433770656585693
      ],
      "min": [
        0.024775000289082527,
        -1.1427619457244873
      ],
      "type": "VEC2"
    },
    {
      "bufferView": 0,
      "byteOffset": 145248,
      "componentType": 5125,
      "count": 5568,
      "type": "SCALAR"
    },
    {
      "bufferView": 2,
      "byteOffset": 618672,
      "componentType": 5126,
      "count": 3984,
      "max": [
        24.95255470275879,
        11.448596954345703,
        148.17359924316406
      ],
      "min": [
        -24.95255470275879,
        -11.448596954345703,
        5.9209442138671875
      ],
      "type": "VEC3"
    },
    {
      "bufferView": 2,
      "byteOffset": 666480,
      "componentType": 5126,
      "count": 3984,
      "max": [
        1.0,
        1.0,
        0.0
      ],
      "min": [
        -1.0,
        -1.0,
        0.0
      ],
      "type": "VEC3"
    },
    {
      "bufferView": 1,
      "byteOffset": 206224,
      "componentType": 5126,
      "count": 3984,
      "max": [
        0.5254240036010742,
        0.5244860053062439
      ],
      "min": [
        0.06302099674940109,
        0.47992798686027527
      ],
      "type": "VEC2"
    },
    {
      "bufferView": 0,
      "byteOffset": 167520,
      "componentType": 5125,
      "count": 5976,
      "type": "SCALAR"
    },
    {
      "bufferView": 2,
      "byteOffset": 714288,
      "componentType": 5126,
      "count": 100,
      "max": [
        16.95796775817871,
        10.528033256530762,
        161.33274841308594
      ],
      "min": [
        -16.98503303527832,
        -10.528036117553711,
        153.91612243652344
      ],
      "type": "VEC3"
    },
    {
      "bufferView": 2,
      "byteOffset": 715488,
      "componentType": 5126,
      "count": 100,
      "max": [
        1.0,
        1.0,
        1.0
      ],
      "min": [
        -1.0,
        -1.0,
        0.0
      ],
      "type": "VEC3"
    },
    {
      "bufferView": 1,
      "byteOffset": 238096,
      "componentType": 5126,
      "count": 100,
      "max": [
        0.3742409944534302,
        1.1864049434661865
      ],
      "min": [
        -0.07112699747085571,
        -0.18328499794006348
      ],
      "type": "VEC2"
    },
    {
      "bufferView": 0,
      "byteOffset": 191424,
      "componentType": 5125,
      "count": 150,
      "type": "SCALAR"
    },
    {
      "bufferView": 2,
      "byteOffset": 716688,
      "componentType": 5126,
      "count": 32,
      "max": [
        25.024660110473633,
        10.528034210205078,
        157.37274169921875
      ],
      "min": [
        -25.024660110473633,
        -10.528034210205078,
        154.080322265625
      ],
      "type": "VEC3"
    },
    {
      "bufferView": 0,
      "byteOffset": 192024,
      "componentType": 5125,
      "count": 32,
      "type": "SCALAR"
    },
    {
      "bufferView": 2,
      "byteOffset": 717072,
      "componentType": 5126,
      "count": 20,
      "max": [
        23.704458236694336,
        8.145795822143555,
        156.69564819335938
      ],
      "min": [
        -23.704458236694336,
        -8.145795822143555,
        0.0
      ],
      "type": "VEC3"
    },
    {
      "bufferView": 2,
      "byteOffset": 717312,
      "componentType": 5126,
      "count": 20,
      "max": [
        1.0,
        1.0,
        0.0
      ],
      "min": [
        -1.0,
        -1.0,
        -1.0
      ],
      "type": "VEC3"
    },
    {
      "bufferView": 1,
      "byteOffset": 238896,
      "componentType": 5126,
      "count": 20,
      "max": [
        0.0,
        0.0
      ],
      "min": [
        0.0,
        0.0
      ],
      "type": "VEC2"
    },
    {
      "bufferView": 0,
      "byteOffset": 192152,
      "componentType": 5125,
      "count": 30,
      "type": "SCALAR"
    }
  ],
  "asset": {
    "extras": {
      "author": "Alnazir (https://sketchfab.com/Nzr.3d)",
      "license": "CC-BY-4.0 (http://creativecommons.org/licenses/by/4.0/)",
      "source": "https://sketchfab.com/3d-models/burj-crown-emaar-dubai-8e4751866dbc4b44b6b9a18c94969b76",
      "title": "Burj Crown emaar - Dubai"
    },
    "generator": "Sketchfab-14.64.0",
    "version": "2.0"
  },
  "bufferViews": [
    {
      "buffer": 0,
      "byteLength": 192272,
      "name": "floatBufferViews",
      "target": 34963
    },
    {
      "buffer": 0,
      "byteLength": 239056,
      "byteOffset": 192272,
      "byteStride": 8,
      "name": "floatBufferViews",
      "target": 34962
    },
    {
      "buffer": 0,
      "byteLength": 717552,
      "byteOffset": 431328,
      "byteStride": 12,
      "name": "floatBufferViews",
      "target": 34962
    }
  ],
  "buffers": [
    {
      "byteLength": 1148880,
      "uri": "scene.bin"
    }
  ],
  "extensionsUsed": [
    "KHR_materials_specular"
  ],
  "images": [
    {
      "uri": "textures/Crown-circle_baseColor.png"
    },
    {
      "uri": "textures/Crown-cladding_baseColor.png"
    },
    {
      "uri": "textures/Crown-cladding_metallicRoughness.png"
    },
    {
      "uri": "textures/Crown-glass_baseColor.jpeg"
    },
    {
      "uri": "textures/Crown-glass_metallicRoughness.png"
    },
    {
      "uri": "textures/Crown-glasscladding_baseColor.png"
    },
    {
      "uri": "textures/Crown-glasscladding_metallicRoughness.png"
    },
    {
      "uri": "textures/Crown-glasscladding2_baseColor.png"
    },
    {
      "uri": "textures/Crown-hexa_baseColor.png"
    }
  ],
  "materials": [
    {
      "doubleSided": true,
      "name": "Crown-circle",
      "pbrMetallicRoughness": {
        "baseColorTexture": {
          "index": 0
        },
        "metallicFactor": 0.0,
        "roughnessFactor": 0.8011823178082373
      }
    },
    {
      "doubleSided": true,
      "extensions": {
        "KHR_materials_specular": {
          "specularColorFactor": [
            1.0,
            1.0,
            1.0
          ],
          "specularFactor": 1.0
        }
      },
      "name": "Crown-cladding",
      "pbrMetallicRoughness": {
        "baseColorTexture": {
          "index": 1
        },
        "metallicFactor": 0.3016349113227411,
        "metallicRoughnessTexture": {
          "index": 2
        },
        "roughnessFactor": 0.6
      }
    },
    {
      "alphaMode": "BLEND",
      "doubleSided": true,
      "extensions": {
        "KHR_materials_specular": {
          "specularColorFactor": [
            1.0,
            1.0,
            1.0
          ],
          "specularFactor": 1.0
        }
      },
      "name": "Crown-glass",
      "pbrMetallicRoughness": {
        "baseColorFactor": [
          1.0,
          1.0,
          1.0,
          0.9306962888413456
        ],
        "baseColorTexture": {
          "index": 3
        },
        "metallicFactor": 0.29534429754755503,
        "metallicRoughnessTexture": {
          "index": 4
        },
        "roughnessFactor": 0.0
      }
    },
    {
      "alphaMode": "BLEND",
      "doubleSided": true,
      "extensions": {
        "KHR_materials_specular": {
          "specularColorFactor": [
            1.0,
            1.0,
            1.0
          ],
          "specularFactor": 1.0
        }
      },
      "name": "Crown-glasscladding",
      "pbrMetallicRoughness": {
        "baseColorFactor": [
          1.0,
          1.0,
          1.0,
          0.967593
        ],
        "baseColorTexture": {
          "index": 5
        },
        "metallicFactor": 0.723106034260206,
        "metallicRoughnessTexture": {
          "index": 6
        },
        "roughnessFactor": 0.5343876210046248
      }
    },
    {
      "doubleSided": true,
      "name": "Crown-glasscladding2",
      "pbrMetallicRoughness": {
        "baseColorTexture": {
          "index": 7
        },
        "metallicFactor": 0.0,
        "metallicRoughnessTexture": {
          "index": 6
        },
        "roughnessFactor": 0.6
      }
    },
    {
      "alphaMode": "BLEND",
      "doubleSided": true,
      "name": "Crown-hexa",
      "pbrMetallicRoughness": {
        "baseColorFactor": [
          0.8,
          0.562993,
          0.400755,
          1.0
        ],
        "baseColorTexture": {
          "index": 8
        },
        "metallicFactor": 0.0,
        "roughnessFactor": 0.7823575448040042
      }
    },
    {
      "doubleSided": true,
      "name": "Crown_floor",
      "pbrMetallicRoughness": {
        "baseColorFactor": [
          0.437108,
          0.469183,
          0.488896,
          1.0
        ],
        "metallicFactor": 0.0,
        "roughnessFactor": 0.8011823178082373
      }
    }
  ],
  "meshes": [
    {
      "name": "Object_0",
      "primitives": [
        {
          "attributes": {
            "NORMAL": 1,
            "POSITION": 0,
            "TEXCOORD_0": 2
          },
          "indices": 3,
          "material": 0,
          "mode": 4
        }
      ]
    },
    {
      "name": "Object_1",
      "primitives": [
        {
          "attributes": {
            "NORMAL": 5,
            "POSITION": 4,
            "TEXCOORD_0": 6
          },
          "indices": 7,
          "material": 1,
          "mode": 4
        }
      ]
    },
    {
      "name": "Object_2",
      "primitives": [
        {
          "attributes": {
            "NORMAL": 9,
            "POSITION": 8,
            "TEXCOORD_0": 10
          },
          "indices": 11,
          "material": 2,
          "mode": 4
        }
      ]
    },
    {
      "name": "Object_3",
      "primitives": [
        {
          "attributes": {
            "NORMAL": 13,
            "POSITION": 12,
            "TEXCOORD_0": 14
          },
          "indices": 15,
          "material": 3,
          "mode": 4
        }
      ]
    },
    {
      "name": "Object_4",
      "primitives": [
        {
          "attributes": {
            "NORMAL": 17,
            "POSITION": 16,
            "TEXCOORD_0": 18
          },
          "indices": 19,
          "material": 4,
          "mode": 4
        }
      ]
    },
    {
      "name": "Object_5",
      "primitives": [
        {
          "attributes": {
            "NORMAL": 21,
            "POSITION": 20,
            "TEXCOORD_0": 22
          },
          "indices": 23,
          "material": 5,
          "mode": 4
        }
      ]
    },
    {
      "name": "Object_6",
      "primitives": [
        {
          "attributes": {
            "POSITION": 24
          },
          "indices": 25,
          "material": 6,
          "mode": 1
        }
      ]
    },
    {
      "name": "Object_7",
      "primitives": [
        {
          "attributes": {
            "NORMAL": 27,
            "POSITION": 26,
            "TEXCOORD_0": 28
          },
          "indices": 29,
          "material": 6,
          "mode": 4
        }
      ]
    }
  ],
  "nodes": [
    {
      "children": [
        1
      ],
      "matrix": [
        1.0,
        0.0,
        0.0,
        0.0,
        0.0,
        2.220446049250313e-16,
        -1.0,
        0.0,
        0.0,
        1.0,
        2.220446049250313e-16,
        0.0,
        0.0,
        0.0,
        0.0,
        1.0
      ],
      "name": "Sketchfab_model"
    },
    {
      "children": [
        2,
        3,
        4,
        5,
        6,
        7,
        8,
        9
      ],
      "name": "Burj Crown.obj.cleaner.materialmerger.gles"
    },
    {
      "mesh": 0,
      "name": "Object_2"
    },
    {
      "mesh": 1,
      "name": "Object_3"
    },
    {
      "mesh": 2,
      "name": "Object_4"
    },
    {
      "mesh": 3,
      "name": "Object_5"
    },
    {
      "mesh": 4,
      "name": "Object_6"
    },
    {
      "mesh": 5,
      "name": "Object_7"
    },
    {
      "mesh": 6,
      "name": "Object_8"
    },
    {
      "mesh": 7,
      "name": "Object_9"
    }
  ],
  "samplers": [
    {
      "magFilter": 9729,
      "minFilter": 9987,
      "wrapS": 10497,
      "wrapT": 10497
    }
  ],
  "scene": 0,
  "scenes": [
    {
      "name": "Sketchfab_Scene",
      "nodes": [
        0
      ]
    }
  ],
  "textures": [
    {
      "sampler": 0,
      "source": 0
    },
    {
      "sampler": 0,
      "source": 1
    },
    {
      "sampler": 0,
      "source": 2
    },
    {
      "sampler": 0,
      "source": 3
    },
    {
      "sampler": 0,
      "source": 4
    },
    {
      "sampler": 0,
      "source": 5
    },
    {
      "sampler": 0,
      "source": 6
    },
    {
      "sampler": 0,
      "source": 7
    },
    {
      "sampler": 0,
      "source": 8
    }
  ]
}
